<?xml version="1.0" standalone="no"?>
<!DOCTYPE svg PUBLIC "-//W3C//DTD SVG 20010904//EN"
 "http://www.w3.org/TR/2001/REC-SVG-20010904/DTD/svg10.dtd">
<svg version="1.0" xmlns="http://www.w3.org/2000/svg"
 width="2000.000000pt" height="1091.000000pt" viewBox="0 0 2000.000000 1091.000000"
 preserveAspectRatio="xMidYMid meet">

<g transform="translate(0.000000,1091.000000) scale(0.100000,-0.100000)"
fill="#000000" stroke="none">
<path d="M10250 5299 l0 -411 -22 5 c-13 2 -66 16 -118 30 -291 79 -696 81
-993 6 -234 -59 -362 -152 -447 -324 -53 -106 -60 -166 -60 -520 0 -362 7
-413 67 -535 44 -91 141 -191 228 -237 75 -39 203 -77 355 -105 96 -18 154
-21 345 -21 191 0 249 3 345 21 202 37 330 81 408 139 39 29 31 34 153 -84 48
-46 95 -83 106 -83 21 0 223 213 223 235 0 7 -49 59 -108 116 -59 57 -112 111
-117 119 -6 9 -12 414 -15 1035 l-5 1020 -172 3 -173 2 0 -411z m-423 -680
c110 -14 251 -48 294 -70 57 -29 105 -90 119 -150 8 -37 11 -147 8 -349 -3
-279 -4 -297 -25 -335 -42 -79 -89 -106 -241 -141 -239 -54 -515 -54 -754 0
-152 35 -199 62 -241 141 -21 38 -22 56 -25 335 -3 202 0 312 8 349 14 61 62
121 119 150 43 22 152 49 265 66 101 16 369 18 473 4z"/>
<path d="M15767 5703 c-12 -11 -8 -2043 4 -2109 33 -184 191 -346 372 -384 30
-6 107 -9 173 -8 l119 3 0 170 0 170 -115 5 c-125 5 -154 16 -187 67 -17 25
-18 68 -18 563 l0 535 220 5 220 5 0 170 0 170 -220 5 -220 5 -3 318 -2 317
-168 0 c-93 0 -172 -3 -175 -7z"/>
<path d="M5482 5433 l3 -228 161 -3 c129 -2 164 0 173 12 8 9 11 76 9 227 l-3
214 -173 3 -172 2 2 -227z"/>
<path d="M18902 5399 c-105 -52 -153 -198 -101 -306 56 -115 189 -163 305
-109 167 78 181 309 24 404 -46 27 -63 32 -120 32 -46 0 -77 -6 -108 -21z
m194 -18 c66 -30 124 -118 124 -187 0 -68 -58 -157 -124 -191 -50 -26 -135
-21 -190 11 -54 31 -96 97 -103 160 -18 153 150 272 293 207z"/>
<path d="M18920 5200 c0 -103 1 -110 20 -110 17 0 20 7 20 40 0 36 3 40 25 40
14 0 25 -4 25 -8 0 -15 55 -71 78 -77 35 -10 28 21 -13 56 l-35 31 25 20 c18
14 25 29 25 53 0 48 -29 65 -107 65 l-63 0 0 -110z m128 52 c5 -33 -15 -52
-54 -52 -33 0 -34 1 -34 41 l0 40 43 -3 c35 -3 43 -7 45 -26z"/>
<path d="M7114 4980 c-209 -16 -453 -77 -549 -138 -115 -72 -195 -172 -243
-302 l-27 -75 -3 -345 c-4 -392 2 -442 64 -569 45 -91 142 -192 229 -238 74
-39 203 -77 355 -105 172 -32 514 -31 693 0 253 46 371 95 477 202 66 65 116
147 147 237 25 72 31 714 9 823 -41 194 -182 359 -361 420 -220 76 -525 110
-791 90z m421 -365 c267 -40 354 -89 385 -215 7 -30 10 -147 8 -345 -3 -285
-4 -302 -25 -340 -42 -79 -89 -106 -241 -141 -161 -36 -351 -49 -513 -35 -157
13 -333 51 -392 83 -48 27 -95 89 -107 144 -14 56 -12 572 1 635 13 59 61 120
118 148 137 69 526 102 766 66z"/>
<path d="M11940 4984 c-224 -15 -447 -62 -569 -121 -96 -46 -202 -150 -248
-243 -62 -123 -64 -149 -61 -562 3 -358 4 -375 25 -432 68 -179 198 -304 375
-360 344 -108 793 -113 1143 -11 103 30 159 58 237 120 62 49 133 150 169 240
23 59 24 67 27 438 2 254 -1 396 -8 433 -31 149 -157 308 -300 377 -170 83
-530 138 -790 121z m453 -383 c132 -29 197 -55 235 -93 60 -63 62 -75 62 -423
0 -352 -1 -359 -68 -428 -72 -74 -299 -122 -577 -121 -179 1 -284 14 -434 54
-72 20 -91 30 -132 69 -30 30 -51 60 -58 86 -7 25 -11 155 -11 345 0 301 0
306 24 357 43 91 128 132 353 168 134 22 477 14 606 -14z"/>
<path d="M17630 4979 c-131 -9 -264 -32 -376 -64 -117 -34 -146 -48 -219 -100
-112 -80 -191 -204 -221 -345 -22 -109 -16 -751 9 -823 50 -146 157 -274 283
-339 79 -41 205 -77 369 -104 162 -27 506 -25 665 4 152 28 281 66 355 105 87
46 184 147 229 238 62 127 68 177 64 569 l-3 345 -27 75 c-48 130 -128 230
-243 302 -102 64 -338 121 -571 138 -151 11 -160 11 -314 -1z m387 -360 c110
-14 251 -48 294 -70 57 -28 105 -89 118 -148 6 -31 11 -163 11 -325 0 -296 -6
-337 -55 -402 -36 -47 -88 -71 -214 -100 -238 -54 -514 -54 -753 0 -152 35
-199 62 -241 141 -21 38 -22 55 -25 340 -2 198 1 315 8 345 31 125 118 174
377 214 107 17 373 20 480 5z"/>
<path d="M3774 4961 c-192 -34 -399 -119 -506 -208 -96 -80 -176 -201 -212
-323 -30 -99 -28 -205 11 -725 l38 -500 171 -3 c132 -2 173 0 176 10 3 7 -12
245 -33 528 -41 545 -41 568 0 649 66 129 293 226 561 238 136 7 260 -8 374
-44 236 -74 326 -171 326 -348 0 -40 -16 -285 -35 -545 -19 -259 -32 -476 -29
-481 3 -5 81 -9 174 -9 l169 0 5 43 c3 23 22 265 41 537 33 461 35 501 21 576
-26 152 -89 268 -202 373 -115 108 -342 203 -564 236 -130 20 -359 18 -486 -4z"/>
<path d="M14125 4965 c-168 -26 -349 -90 -472 -167 -116 -73 -226 -215 -267
-343 -39 -124 -39 -158 -1 -679 19 -270 38 -510 41 -533 l5 -43 169 0 c93 0
171 4 174 9 3 5 -10 222 -29 482 -20 261 -36 504 -36 541 -2 177 92 277 327
351 348 110 831 10 934 -194 41 -80 41 -97 1 -650 -21 -288 -37 -527 -34 -531
2 -5 80 -8 173 -8 168 0 170 0 175 23 2 12 21 254 41 537 36 497 36 518 21
603 -47 265 -217 440 -534 548 -189 64 -479 87 -688 54z"/>
<path d="M835 4938 c-2 -7 -21 -248 -41 -535 -37 -517 -37 -522 -20 -610 27
-138 81 -240 180 -339 71 -71 96 -89 196 -137 211 -103 413 -143 665 -134 231
8 380 44 570 137 207 100 332 264 372 485 13 75 11 115 -22 590 -20 281 -38
520 -41 533 -4 22 -6 22 -174 22 -93 0 -171 -3 -174 -8 -2 -4 12 -237 32 -517
22 -296 34 -530 31 -557 -10 -65 -46 -133 -93 -175 -51 -47 -165 -98 -285
-130 -85 -23 -115 -26 -266 -26 -151 0 -181 3 -266 26 -185 49 -304 120 -350
209 -41 80 -41 104 -1 643 21 281 37 516 34 523 -3 9 -47 12 -173 12 -127 0
-171 -3 -174 -12z"/>
<path d="M5480 4075 l0 -875 173 2 172 3 0 870 0 870 -172 3 -173 2 0 -875z"/>
</g>
</svg>
